<svg width="1045" height="633" xmlns="http://www.w3.org/2000/svg" xmlns:xlink="http://www.w3.org/1999/xlink" xml:space="preserve" overflow="hidden"><g transform="translate(-1150 -302)"><g><rect x="1154.5" y="403.5" width="1034" height="456" stroke="#4E95D9" stroke-width="6.875" stroke-linecap="butt" stroke-linejoin="miter" stroke-miterlimit="8" stroke-opacity="1" fill="none"/><path d="M1518.5 373.667C1518.5 364.186 1526.19 356.5 1535.67 356.5L1833.33 356.5C1842.81 356.5 1850.5 364.186 1850.5 373.667L1850.5 442.333C1850.5 451.814 1842.81 459.5 1833.33 459.5L1535.67 459.5C1526.19 459.5 1518.5 451.814 1518.5 442.333Z" stroke="#042433" stroke-width="6.875" stroke-linecap="butt" stroke-linejoin="miter" stroke-miterlimit="8" stroke-opacity="1" fill="#FFFFFF" fill-rule="evenodd" fill-opacity="1"/><g><text fill="#000000" fill-opacity="1" font-family="TeXGyreTermes,TeXGyreTermes_MSFontService,sans-serif" font-style="normal" font-variant="normal" font-weight="400" font-stretch="normal" font-size="46" text-anchor="start" direction="ltr" writing-mode="lr-tb" unicode-bidi="normal" text-decoration="none" transform="matrix(1 0 0 1 1571.59 425)">Nước bể bơi</text></g><g><text fill="#000000" fill-opacity="1" font-family="TeXGyreTermes,TeXGyreTermes_MSFontService,sans-serif" font-style="normal" font-variant="normal" font-weight="400" font-stretch="normal" font-size="50" text-anchor="start" direction="ltr" writing-mode="lr-tb" unicode-bidi="normal" text-decoration="none" transform="matrix(1 0 0 1 1250.57 373)">Máy bơm</text></g><path d="M1301.5 446.5 1319.5 428.5 1319.5 437.5 1377.5 437.5 1377.5 455.5 1319.5 455.5 1319.5 464.5Z" stroke="#FF0000" stroke-width="6.875" stroke-linecap="butt" stroke-linejoin="miter" stroke-miterlimit="8" stroke-opacity="1" fill="none" fill-rule="evenodd"/><path d="M1506.5 828.834C1506.5 819.261 1514.26 811.5 1523.83 811.5L1848.17 811.5C1857.74 811.5 1865.5 819.261 1865.5 828.834L1865.5 898.166C1865.5 907.739 1857.74 915.5 1848.17 915.5L1523.83 915.5C1514.26 915.5 1506.5 907.739 1506.5 898.166Z" stroke="#042433" stroke-width="6.875" stroke-linecap="butt" stroke-linejoin="miter" stroke-miterlimit="8" stroke-opacity="1" fill="#FFFFFF" fill-rule="evenodd" fill-opacity="1"/><g><text fill="#000000" fill-opacity="1" font-family="TeXGyreTermes,TeXGyreTermes_MSFontService,sans-serif" font-style="normal" font-variant="normal" font-weight="400" font-stretch="normal" font-size="46" text-anchor="start" direction="ltr" writing-mode="lr-tb" unicode-bidi="normal" text-decoration="none" transform="matrix(1 0 0 1 1548.11 880)">Máy điện phân</text></g><g><text fill="#000000" fill-opacity="1" font-family="TeXGyreTermes,TeXGyreTermes_MSFontService,sans-serif" font-style="normal" font-variant="normal" font-weight="400" font-stretch="normal" font-size="50" text-anchor="start" direction="ltr" writing-mode="lr-tb" unicode-bidi="normal" text-decoration="none" transform="matrix(1 0 0 1 1954.19 818)">Máy bơm</text></g><path d="M2077.5 907 2059 925.5 2059 916.25 2001.5 916.25 2001.5 897.75 2059 897.75 2059 888.5Z" stroke="#FF0000" stroke-width="6.875" stroke-linecap="butt" stroke-linejoin="miter" stroke-miterlimit="8" stroke-opacity="1" fill="none" fill-rule="evenodd"/></g></g></svg>